<svg width="60" height="60" viewBox="0 0 60 60" fill="none" xmlns="http://www.w3.org/2000/svg">
<path d="M16.25 15C14.875 15 13.6979 14.5104 12.7188 13.5312C11.7396 12.5521 11.25 11.375 11.25 10C11.25 8.625 11.7396 7.44792 12.7188 6.46875C13.6979 5.48958 14.875 5 16.25 5C17.625 5 18.8021 5.48958 19.7812 6.46875C20.7604 7.44792 21.25 8.625 21.25 10C21.25 11.375 20.7604 12.5521 19.7812 13.5312C18.8021 14.5104 17.625 15 16.25 15ZM42.5 27.5C41.4583 27.5 40.5729 27.1354 39.8438 26.4062C39.1146 25.6771 38.75 24.7917 38.75 23.75C38.75 22.7083 39.1146 21.8229 39.8438 21.0938C40.5729 20.3646 41.4583 20 42.5 20C43.5417 20 44.4271 20.3646 45.1562 21.0938C45.8854 21.8229 46.25 22.7083 46.25 23.75C46.25 24.7917 45.8854 25.6771 45.1562 26.4062C44.4271 27.1354 43.5417 27.5 42.5 27.5ZM11.25 55V37.5H7.5V22.5C7.5 21.125 7.98958 19.9479 8.96875 18.9688C9.94792 17.9896 11.125 17.5 12.5 17.5H20C20.9167 17.5 21.75 17.7188 22.5 18.1562C23.25 18.5938 23.8542 19.2083 24.3125 20L33.25 35.4375L35.8125 31.625C36.1458 31.125 36.5938 30.7292 37.1562 30.4375C37.7188 30.1458 38.3125 30 38.9375 30H46.25C47.2917 30 48.1771 30.3646 48.9062 31.0938C49.6354 31.8229 50 32.7083 50 33.75V42.5H47.5V55H37.5V37.25L35.5625 40H30.0625L23.75 29V55H11.25Z" fill="#88A47C"/>
</svg>
