<svg width="320" height="310" viewBox="0 0 320 310" fill="none" xmlns="http://www.w3.org/2000/svg">
<path opacity="0.1" d="M35.1279 258.917C54.5285 258.917 70.2557 256.759 70.2557 254.096C70.2557 251.433 54.5285 249.274 35.1279 249.274C15.7273 249.274 0 251.433 0 254.096C0 256.759 15.7273 258.917 35.1279 258.917Z" fill="#88A47C"/>
<path opacity="0.1" d="M169.684 272.557C189.085 272.557 204.812 270.398 204.812 267.735C204.812 265.073 189.085 262.914 169.684 262.914C150.283 262.914 134.556 265.073 134.556 267.735C134.556 270.398 150.283 272.557 169.684 272.557Z" fill="#88A47C"/>
<path opacity="0.1" d="M115.829 310C129.62 310 140.799 308.465 140.799 306.572C140.799 304.68 129.62 303.145 115.829 303.145C102.038 303.145 90.8579 304.68 90.8579 306.572C90.8579 308.465 102.038 310 115.829 310Z" fill="#88A47C"/>
<path opacity="0.1" d="M255.483 306.572C269.274 306.572 280.454 305.038 280.454 303.145C280.454 301.252 269.274 299.717 255.483 299.717C241.693 299.717 230.513 301.252 230.513 303.145C230.513 305.038 241.693 306.572 255.483 306.572Z" fill="#88A47C"/>
<path d="M170.441 266.655C170.441 266.655 121.176 105.195 178.152 40.5257C220.775 -7.85297 269.152 -2.06392 290.82 3.92269C296.427 5.41446 301.642 8.10701 306.105 11.8138C310.568 15.5206 314.171 20.153 316.665 25.3902C324.238 41.7318 322.87 68.2507 269.399 99.1995C179.866 151.021 174.296 222.114 174.296 222.114L170.441 266.655Z" fill="#88A47C"/>
<path d="M283.107 26.8211C283.107 26.8211 137.883 72.2182 170.44 266.655L283.107 26.8211Z" fill="#88A47C"/>
<path d="M283.107 26.8211C283.107 26.8211 137.883 72.2182 170.44 266.655" stroke="#565987" stroke-miterlimit="10"/>
<path d="M198.286 43.0954C198.286 43.0954 218.283 56.5689 211.926 76.8134L198.286 43.0954Z" fill="#88A47C"/>
<path d="M198.286 43.0954C198.286 43.0954 218.283 56.5689 211.926 76.8134" stroke="#565987" stroke-miterlimit="10"/>
<path d="M268.54 55.087C268.54 55.087 256.315 42.6534 241.437 49.5126L268.54 55.087Z" fill="#88A47C"/>
<path d="M268.54 55.087C268.54 55.087 256.315 42.6534 241.437 49.5126" stroke="#565987" stroke-miterlimit="10"/>
<path d="M211.138 117.615C211.138 117.615 189.67 106.724 184.12 120.365L211.138 117.615Z" fill="#88A47C"/>
<path d="M211.138 117.615C211.138 117.615 189.67 106.724 184.12 120.365" stroke="#565987" stroke-miterlimit="10"/>
<path d="M158.017 140.314C158.017 140.314 174.135 139.029 174.43 146.738L158.017 140.314Z" fill="#88A47C"/>
<path d="M158.017 140.314C158.017 140.314 174.135 139.029 174.43 146.738" stroke="#565987" stroke-miterlimit="10"/>
<path d="M168.448 267.939C168.448 267.939 226.147 150.592 241.997 153.162C249.526 154.382 252.996 161.787 254.563 169.226C256.509 178.843 255.411 188.826 251.421 197.79C243.235 216.566 221.243 252.227 168.448 267.939Z" fill="#88A47C"/>
<path d="M241.569 175.432C241.569 175.432 181.006 263.228 169.305 267.083L241.569 175.432Z" fill="#88A47C"/>
<path d="M241.569 175.432C241.569 175.432 181.006 263.228 169.305 267.083" stroke="#565987" stroke-miterlimit="10"/>
<path d="M247.138 189.137H233.001" stroke="#565987" stroke-miterlimit="10"/>
<path d="M230.206 221.258L208.048 222.206" stroke="#565987" stroke-miterlimit="10"/>
<path d="M216.723 195.561L219.128 207.1" stroke="#565987" stroke-miterlimit="10"/>
<path d="M193.159 230.679L193.588 241.165" stroke="#565987" stroke-miterlimit="10"/>
<path d="M170.162 267.939C170.162 267.939 112.463 150.592 96.6127 153.162C89.0838 154.382 85.6145 161.787 84.0467 169.226C82.1009 178.843 83.1993 188.826 87.1893 197.79C95.3747 216.566 117.367 252.227 170.162 267.939Z" fill="#88A47C"/>
<path d="M97.041 175.432C97.041 175.432 157.604 263.228 169.305 267.083L97.041 175.432Z" fill="#88A47C"/>
<path d="M97.041 175.432C97.041 175.432 157.604 263.228 169.305 267.083" stroke="#565987" stroke-miterlimit="10"/>
<path d="M91.4722 189.137H105.609" stroke="#565987" stroke-miterlimit="10"/>
<path d="M108.403 221.258L130.561 222.206" stroke="#565987" stroke-miterlimit="10"/>
<path d="M121.887 195.561L119.482 207.1" stroke="#565987" stroke-miterlimit="10"/>
<path d="M145.448 230.679L145.02 241.165" stroke="#565987" stroke-miterlimit="10"/>
<path d="M269.233 295.345C270.805 294.065 271.951 292.336 272.518 290.39C272.771 289.413 272.682 288.379 272.264 287.461C271.846 286.542 271.126 285.794 270.223 285.343C268.115 284.537 265.863 285.998 264.155 287.473C262.447 288.948 260.49 290.631 258.256 290.319C259.405 289.277 260.265 287.956 260.752 286.483C261.239 285.01 261.336 283.437 261.033 281.915C260.935 281.287 260.668 280.697 260.261 280.209C259.091 278.958 256.97 279.495 255.569 280.48C251.114 283.613 249.87 289.663 249.846 295.109C249.6 293.109 249.572 291.089 249.764 289.083C249.851 288.077 249.69 287.065 249.295 286.136C248.901 285.207 248.285 284.388 247.501 283.752C246.442 283.182 245.251 282.902 244.048 282.941C243.055 282.798 242.043 282.866 241.078 283.14C240.113 283.414 239.217 283.889 238.447 284.532C237.708 285.537 237.328 286.761 237.368 288.008C237.408 289.255 237.865 290.452 238.667 291.408C240.318 293.277 242.28 294.847 244.464 296.049C246.125 297.038 247.541 298.388 248.607 300C248.732 300.224 248.835 300.461 248.914 300.706H261.469C264.287 299.277 266.899 297.474 269.233 295.345Z" fill="#88A47C"/>
<path d="M49.3725 248.084C50.9445 246.804 52.0899 245.076 52.6568 243.129C52.9103 242.152 52.8207 241.118 52.4029 240.2C51.9852 239.281 51.2647 238.533 50.3618 238.082C48.2541 237.276 46.0019 238.737 44.2943 240.212C42.5866 241.687 40.6296 243.37 38.3948 243.058C39.5443 242.016 40.4044 240.695 40.8912 239.222C41.3779 237.749 41.4748 236.176 41.1723 234.654C41.0742 234.026 40.8072 233.436 40.3999 232.948C39.2299 231.697 37.1088 232.234 35.7079 233.219C31.2527 236.352 30.0095 242.402 29.9853 247.848C29.7386 245.848 29.7111 243.828 29.9033 241.822C29.99 240.816 29.8291 239.805 29.4345 238.875C29.04 237.946 28.4238 237.128 27.6399 236.491C26.5808 235.921 25.3897 235.641 24.1875 235.68C23.1944 235.537 22.1825 235.605 21.2175 235.879C20.2524 236.153 19.356 236.628 18.5866 237.271C17.8475 238.276 17.4674 239.501 17.5072 240.747C17.5471 241.994 18.0046 243.191 18.8063 244.147C20.4576 246.016 22.4186 247.586 24.6034 248.789C26.2638 249.777 27.6799 251.128 28.7462 252.739C28.8715 252.964 28.9744 253.2 29.0533 253.445H41.6083C44.4266 252.017 47.0385 250.213 49.3725 248.084Z" fill="#88A47C"/>
<path d="M122.648 295.345C124.219 294.065 125.365 292.336 125.932 290.39C126.185 289.413 126.096 288.379 125.678 287.461C125.26 286.542 124.54 285.794 123.637 285.343C121.529 284.537 119.277 285.998 117.569 287.473C115.862 288.948 113.905 290.631 111.67 290.319C112.819 289.277 113.679 287.956 114.166 286.483C114.653 285.01 114.75 283.437 114.447 281.915C114.349 281.287 114.082 280.697 113.675 280.209C112.505 278.958 110.384 279.495 108.983 280.48C104.528 283.613 103.284 289.663 103.26 295.109C103.014 293.109 102.986 291.089 103.178 289.083C103.265 288.077 103.104 287.065 102.709 286.136C102.315 285.207 101.699 284.388 100.915 283.752C99.8557 283.182 98.6647 282.902 97.4625 282.941C96.4695 282.798 95.4574 282.866 94.4924 283.14C93.5273 283.414 92.6309 283.889 91.8615 284.532C91.1224 285.537 90.7423 286.761 90.7821 288.008C90.822 289.255 91.2796 290.452 92.0814 291.408C93.7326 293.277 95.6936 294.847 97.8784 296.049C99.5388 297.038 100.955 298.388 102.021 300C102.146 300.224 102.249 300.461 102.328 300.706H114.883C117.702 299.277 120.313 297.474 122.648 295.345Z" fill="#88A47C"/>
</svg>
