<svg width="60" height="91" viewBox="0 0 60 91" fill="none" xmlns="http://www.w3.org/2000/svg">
<path fill-rule="evenodd" clip-rule="evenodd" d="M32.5879 64.4114C31.1727 77.6126 36.3824 81.8177 45.9884 82.1594C53.26 81.8299 61.5483 82.0211 59.7508 63.3255C58.4087 54.7444 52.0847 45.6793 45.6264 45.3051C39.0462 45.3702 34.3774 53.6545 32.5879 64.4114Z" fill="#88A47C"/>
<path fill-rule="evenodd" clip-rule="evenodd" d="M46.5725 58.8847C48.6019 58.3153 50.5336 58.173 52.3963 58.3235C50.7004 59.6127 48.8621 60.6213 46.8572 61.2923L47.4713 66.5427C49.7853 65.7903 52.0628 65.4528 54.3199 65.408C52.319 66.9575 50.2327 68.4013 47.8047 69.3651L48.3944 74.3715C51.0176 74.705 53.5472 75.0018 56.0199 75.5061C53.9783 76.5066 51.5422 77.2712 48.8011 77.8446L49.9521 87.6377C47.3249 87.6377 44.7017 87.6377 42.0745 87.6377L43.0627 78.3245C40.3298 77.9219 37.8896 77.2508 35.6895 76.3643C38.0523 75.5021 40.6185 74.8514 43.4694 74.4772L43.9087 70.3412C41.68 69.845 39.4554 69.1618 37.2308 68.3281C39.6465 67.6123 42.0094 67.0998 44.2665 66.9656L44.8115 61.8169C42.9773 61.4916 41.2286 60.6335 39.4961 59.7022C41.4075 59.3036 43.2946 59.0189 45.1043 59.0392L45.8079 52.3899L46.5725 58.8847Z" fill="#8B7E74"/>
<path fill-rule="evenodd" clip-rule="evenodd" d="M48.2457 66.3069C48.1725 65.6237 48.1115 64.9404 48.1318 64.2409C48.1522 63.4072 48.2864 62.5532 49.1608 61.3656C49.6081 60.7515 50.2547 60.048 50.9949 59.3037C49.6976 60.1334 48.323 60.8003 46.8589 61.2924L47.473 66.5428C47.7333 66.4615 47.9895 66.3801 48.2457 66.3069Z" fill="#3C6255"/>
<path fill-rule="evenodd" clip-rule="evenodd" d="M49.1001 72.4311C49.0106 71.6096 49.0553 70.8776 49.7711 69.7917C50.2876 69.0068 51.1539 68.0389 52.1177 67.0181C50.7756 67.9331 49.3604 68.7465 47.8027 69.3647L48.3924 74.3711C48.7625 74.4199 49.1326 74.4646 49.5027 74.5134C49.3278 73.7895 49.1692 73.0818 49.1001 72.4311Z" fill="#3C6255"/>
<path fill-rule="evenodd" clip-rule="evenodd" d="M50.2954 81.8787C50.1938 81.2768 50.1043 80.6912 50.0799 80.1909C50.0514 79.5768 50.1165 79.0929 50.7591 78.5235C51.4016 77.9541 52.6136 77.2994 53.7361 76.5999C53.9028 76.4941 54.0736 76.3884 54.2363 76.2827C52.6055 76.913 50.7835 77.4295 48.7988 77.8443L49.2869 81.9804C49.6244 81.9519 49.962 81.9194 50.2954 81.8787Z" fill="#3C6255"/>
<path fill-rule="evenodd" clip-rule="evenodd" d="M45.8057 52.3898L46.1147 82.1554L46.1717 87.6376H49.9498L49.2869 81.9806L48.7989 77.8445C50.7835 77.4297 52.6055 76.9132 54.2363 76.2828C54.8586 76.0388 55.4523 75.7826 56.0176 75.506C53.8947 75.0709 51.7311 74.7943 49.5025 74.5137C49.1324 74.4649 48.7623 74.4202 48.3922 74.3714L47.8025 69.365C49.3601 68.7469 50.7754 67.9335 52.1175 67.0184C52.8699 66.506 53.6019 65.9651 54.3177 65.4079C52.3127 65.4486 50.2874 65.717 48.2417 66.3067C47.9855 66.3799 47.7293 66.4613 47.469 66.5426L46.8549 61.2922C48.319 60.8001 49.6936 60.1332 50.991 59.3035C51.4709 58.9985 51.9385 58.6691 52.394 58.3234C50.5314 58.1729 48.5996 58.3152 46.5702 58.8846L45.8057 52.3898Z" fill="#897853"/>
<path fill-rule="evenodd" clip-rule="evenodd" d="M11.7798 47.8743C17.0449 51.0313 20.8492 51.2667 25.6401 47.7947C33.3111 50.879 39.1855 49.9375 41.8855 41.8926C50.3146 39.9299 51.2042 33.8859 48.2688 25.7684C54.1328 17.149 49.9615 12.2473 43.0279 8.36683C41.9271 -0.456847 36.1427 -1.18725 27.2255 3.48594C20.7592 -1.61303 15.141 -1.50918 10.8036 6.41447C2.92146 8.57799 1.25642 13.4243 3.79033 20.0844C-1.77597 26.1492 -0.855173 31.7778 4.23342 37.1295C2.67222 43.4469 6.08885 49.0721 11.7798 47.8743Z" fill="#88A47C"/>
<path fill-rule="evenodd" clip-rule="evenodd" d="M23.2972 49.6814C23.1484 63.3513 22.9995 77.0248 22.8507 90.6947C24.5088 90.6947 26.1669 90.6947 27.8251 90.6947C27.8251 76.9486 27.8251 63.2025 27.8251 49.4599C28.9155 45.2125 32.204 40.0927 35.1464 35.7415C36.9603 32.6952 37.9538 31.9544 36.5241 26.3328C34.1771 25.9485 36.0637 35.9665 32.7509 32.0133C31.9409 31.314 31.3871 29.289 31.6501 27.6932C32.3598 23.3765 34.7414 18.8245 33.0175 17.1422C29.1509 16.5225 30.172 32.9999 31.1967 36.2295C32.2213 39.4592 28.3374 41.9066 27.4477 41.2697C26.7554 40.5531 29.182 33.7753 27.292 33.0795C24.3911 32.4045 26.9008 41.2627 23.8269 41.3354C16.6232 37.95 27.382 26.6962 27.112 25.6231C26.0042 25.2839 23.8684 29.9744 23.1172 29.8394C20.6699 29.0086 28.1816 16.9172 27.292 16.8341C24.2353 16.7199 21.4107 25.7131 21.1441 27.2189C20.8187 28.8217 20.5903 31.8714 18.946 32.5464C16.9105 33.0899 18.2294 13.3828 17.0802 13.7255C14.0478 17.9072 17.8521 24.6123 16.6371 32.8129C16.2632 35.0838 13.4939 30.9471 12.4658 32.8129C13.2066 36.0495 15.467 34.7134 19.0118 39.2931C20.9953 41.6158 21.7568 46.3375 23.2972 49.6814Z" fill="#8B7E74"/>
<path fill-rule="evenodd" clip-rule="evenodd" d="M25.6494 47.7985V90.6951H27.8233V49.4601C27.8891 49.1901 27.9687 48.9201 28.0518 48.6466C29.3257 44.5723 32.3857 39.8195 35.1446 35.7417C36.9585 32.6954 37.952 31.9547 36.5224 26.333C34.1754 25.9487 36.062 35.9667 32.7492 32.0135C31.9392 31.3143 31.3853 29.2892 31.6484 27.6934C32.358 23.3767 34.7396 18.8247 33.0157 17.1423C29.1491 16.5227 30.1703 33.0001 31.1949 36.2298C32.2196 39.4595 28.3356 41.9068 27.446 41.2699C26.7537 40.5533 29.1803 33.7755 27.2902 33.0797C25.9402 32.7647 25.7602 34.5163 25.6494 36.4825V47.7985Z" fill="#897853"/>
</svg>
