<svg width="479" height="499" viewBox="0 0 479 499" fill="none" xmlns="http://www.w3.org/2000/svg">
<path d="M408.979 283.813L399.726 291.225L362.617 292.02L336.671 305.133L334.76 324.865L350.549 339.447L336.671 346.859V362.617L319.977 370.039H307.004L301.473 381.976L333.855 393.22L332.045 414.55L325.508 418.251L332.045 422.897L333.855 448.853L320.882 455.34L322.793 492.429L299.562 488.728L279.147 498L269.895 485.942H248.575L234.697 467.398L211.466 473.884L186.425 472.034L150.12 433.094L151.226 421.036L167.015 407.128L140.084 365.403L176.267 367.263L183.709 354.28L167.92 345.008V323.678L149.316 314.406L132.672 311.63L123.4 294.011L129.886 277.317L102.069 260.623V247.65L84.4502 240.228L56.6335 244.864L26.0411 230.956L1 226.319L4.71094 207.775L18.6193 198.503L16.7688 179.033L27.8915 154.002L37.8577 147.505L25.4579 134.945L26.0411 110.416L57.2972 98.3686L57.3576 70.6021L83.525 59.4191L99.5854 72.7744L141.944 68.6914L151.226 50.7804L171.239 51.7358L186.425 36.2385L204.326 35.3636L212.974 22.2799L227.456 24.4521L256.218 12.5652L291.919 1L299.562 22.3302L297.752 52.0074L308.814 72.4023L332.045 77.9636V91.8719L341.297 100.219L343.107 121.539L375.59 123.4L380.216 141.944H394.095L395.1 175.322L417.326 217.047L474.246 225.807L478.47 244.864L459.966 279.167L432.209 270.83L431.506 285.784L408.979 283.813Z" fill="#88A47C" stroke="#1C315E" stroke-width="0.0762"/>
<path d="M253.084 261.091C260.027 261.091 265.655 255.463 265.655 248.52C265.655 241.578 260.027 235.95 253.084 235.95C246.141 235.95 240.513 241.578 240.513 248.52C240.513 255.463 246.141 261.091 253.084 261.091Z" fill="#E6E2C3" stroke="#1C315E" stroke-width="0.0762"/>
<path d="M157.189 155.903C164.132 155.903 169.76 150.275 169.76 143.332C169.76 136.389 164.132 130.761 157.189 130.761C150.247 130.761 144.618 136.389 144.618 143.332C144.618 150.275 150.247 155.903 157.189 155.903Z" fill="#E6E2C3" stroke="#1C315E" stroke-width="0.0762"/>
</svg>
