<svg width="60" height="60" viewBox="0 0 60 60" fill="none" xmlns="http://www.w3.org/2000/svg">
<path d="M31.574 22.5579L33.2584 12.4438C33.397 11.6125 34.1189 11 34.9648 11C35.5117 11 36.0221 11.2552 36.3503 11.6927L37.5826 13.3335H41.3818C42.3079 13.3335 43.1975 13.7054 43.8538 14.3616L45.1664 15.6669H49.2499C50.2198 15.6669 51 16.4472 51 17.417V19.1671C51 22.3902 48.3894 25.0007 45.1664 25.0007H42.8329H41.6662H40.113L39.7411 27.2248L31.574 22.5579ZM39.3327 29.6749V46.0018C39.3327 47.2925 38.29 48.3353 36.9993 48.3353H34.6658C33.3751 48.3353 32.3324 47.2925 32.3324 46.0018V37.6014C30.5823 38.4983 28.5988 39.0015 26.4987 39.0015C24.3986 39.0015 22.4152 38.4983 20.6651 37.6014V46.0018C20.6651 47.2925 19.6223 48.3353 18.3316 48.3353H15.9982C14.7075 48.3353 13.6647 47.2925 13.6647 46.0018V29.2155C11.5646 28.4207 9.91659 26.6414 9.34781 24.3663L9.07071 23.2361C8.75715 21.9891 9.51552 20.7203 10.7698 20.4067C12.024 20.0932 13.2855 20.8516 13.5991 22.1058L13.8835 23.2361C14.1387 24.2715 15.0721 25.0007 16.144 25.0007H18.3316H19.4983H31.151L39.3327 29.6749ZM42.8329 16.8336C42.8329 16.5242 42.71 16.2274 42.4912 16.0086C42.2724 15.7898 41.9756 15.6669 41.6662 15.6669C41.3567 15.6669 41.06 15.7898 40.8412 16.0086C40.6224 16.2274 40.4994 16.5242 40.4994 16.8336C40.4994 17.1431 40.6224 17.4398 40.8412 17.6586C41.06 17.8774 41.3567 18.0004 41.6662 18.0004C41.9756 18.0004 42.2724 17.8774 42.4912 17.6586C42.71 17.4398 42.8329 17.1431 42.8329 16.8336Z" fill="#88A47C"/>
</svg>
